<svg width="100%" style="" viewBox="0 0 160 160" fill="none" xmlns="http://www.w3.org/2000/svg">
  <path
    d="M80 20C113.137 20 140 46.8629 140 80C140 113.137 113.137 140 80 140C46.8629 140 20 113.137 20 80C20 46.8629 46.8629 20 80 20ZM80 30C74.4772 30 70 34.4772 70 40V80C70 80.0176 70.0009 80.0352 70.001 80.0527C70.0017 80.1724 70.0047 80.2918 70.0098 80.4111C70.0122 80.4705 70.0141 80.5298 70.0176 80.5889C70.0235 80.6884 70.0321 80.7876 70.041 80.8867C70.047 80.9553 70.0531 81.0236 70.0605 81.0918C70.0696 81.174 70.0807 81.256 70.0918 81.3379C70.104 81.4294 70.1162 81.5206 70.1309 81.6113C70.138 81.6548 70.1466 81.6979 70.1543 81.7412C70.3173 82.6694 70.6057 83.5539 71.0059 84.375C71.021 84.4063 71.0382 84.4366 71.0537 84.4678C71.1103 84.5808 71.1678 84.6932 71.2285 84.8037C71.2459 84.8356 71.2645 84.8668 71.2822 84.8984C71.3415 85.0038 71.4009 85.109 71.4639 85.2119C71.947 86.0048 72.5459 86.7353 73.251 87.3789C73.2617 87.3887 73.2724 87.3984 73.2832 87.4082C73.3713 87.4879 73.4614 87.5657 73.5527 87.6426C73.5928 87.6764 73.6323 87.7109 73.6729 87.7441C73.7423 87.8007 73.8135 87.8552 73.8848 87.9102C73.9503 87.9609 74.0161 88.0114 74.083 88.0605C74.1396 88.102 74.1972 88.1422 74.2549 88.1826C74.3374 88.2407 74.4205 88.2979 74.5049 88.3535C74.546 88.3805 74.5873 88.4071 74.6289 88.4336C74.7419 88.5057 74.8567 88.575 74.9727 88.6426C74.982 88.648 74.9906 88.6547 75 88.6602L100.98 103.66C105.763 106.422 111.879 104.783 114.641 100C117.402 95.2171 115.763 89.1013 110.98 86.3398L90 74.2266V40C90 34.4772 85.5229 30 80 30Z"
    fill="currentColor" />
</svg>