<svg width="100%" style="" viewBox="0 0 160 160" fill="none" xmlns="http://www.w3.org/2000/svg">
  <path
    d="M140 120C140 131.046 131.046 140 120 140H40C28.9543 140 20 131.046 20 120V68.8636C20 60.7298 29.1937 55.9986 35.8124 60.7263L68.375 83.9854C75.329 88.9525 84.6711 88.9525 91.625 83.9854L124.188 60.7263C130.806 55.9986 140 60.7298 140 68.8636V120ZM120 20C122.744 20 125.359 20.553 127.74 21.5535C132.961 23.7476 132.031 30.545 127.423 33.8367L85.8124 63.5591C82.3354 66.0427 77.6646 66.0427 74.1875 63.5592L32.5761 33.8365C27.968 30.5449 27.0383 23.7477 32.2589 21.5536C34.6399 20.553 37.2553 20 40 20H120Z"
    fill="currentColor" />
</svg>