<svg width="100%" style="" viewBox="0 0 130 130" fill="none" xmlns="http://www.w3.org/2000/svg">
  <path
    d="M109.602 0C120.647 0.00022478 129.602 8.95466 129.602 20V55.3555C129.602 60.6598 127.494 65.7473 123.744 69.498L69.4974 123.744C61.687 131.555 49.0237 131.555 41.2133 123.744L5.85779 88.3887C-1.95261 80.5782 -1.95267 67.915 5.85779 60.1045L60.1039 5.8584C63.8546 2.10767 68.9421 8.42937e-07 74.2465 0H109.602ZM90.7152 19.1807C79.6697 19.1809 70.7152 28.1351 70.7152 39.1807C70.7152 50.2262 79.6697 59.1804 90.7152 59.1807C101.761 59.1807 110.715 50.2264 110.715 39.1807C110.715 28.135 101.761 19.1807 90.7152 19.1807Z"
    fill="currentColor" />
</svg>